<?xml version="1.0" encoding="UTF-8"?>
<svg version="1.1" xmlns="http://www.w3.org/2000/svg" width="1920" height="1920">
<path d="M0 0 C633.6 0 1267.2 0 1920 0 C1920 633.6 1920 1267.2 1920 1920 C1286.4 1920 652.8 1920 0 1920 C0 1286.4 0 652.8 0 0 Z " fill="#000000" transform="translate(0,0)"/>
<path d="M0 0 C4.87190689 2.00049048 9.163814 4.65200858 13.59423828 7.48095703 C16.23328636 9.14730137 18.9056462 10.7472773 21.58984375 12.33984375 C33.9685319 19.68591112 46.25683625 27.18335488 58.55566406 34.66210938 C67.20716248 39.92134814 75.8835886 45.13810133 84.57080078 50.33813477 C91.76679114 54.64948147 98.93992921 58.99740745 106.10498047 63.35986328 C116.97112221 69.97547013 127.88418367 76.50422422 138.83959961 82.97143555 C147.07445144 87.84012899 155.26548721 92.77675601 163.4375 97.75 C164.03099243 98.11111877 164.62448486 98.47223755 165.23596191 98.84429932 C166.9945695 99.9143926 168.75314637 100.98453636 170.51171875 102.0546875 C181.89154986 108.97924628 193.31823974 115.82350098 204.78125 122.609375 C207.60432618 124.2809808 210.42724522 125.95285153 213.25 127.625 C213.95502655 128.0426059 214.6600531 128.46021179 215.38644409 128.89047241 C223.33901041 133.60364348 231.26154351 138.34585014 239.06640625 143.30102539 C245.21711584 147.18415791 251.48551571 150.86683625 257.75 154.5625 C267.14290722 160.10424303 276.49822979 165.70204352 285.8125 171.375 C295.68797722 177.38842672 305.58287475 183.36798089 315.5 189.3125 C316.13747162 189.69467682 316.77494324 190.07685364 317.43173218 190.47061157 C322.55658597 193.54277931 327.68262781 196.61295971 332.80957031 199.68164062 C341.80183445 205.06387172 350.77855006 210.46972694 359.72998047 215.91967773 C360.90330079 216.63398389 362.07664085 217.34825763 363.25 218.0625 C363.83541565 218.41885529 364.4208313 218.77521057 365.02398682 219.1423645 C375.31244984 225.40140474 385.65730325 231.56186845 396.02059937 237.6960144 C409.13461161 245.46054288 422.16428232 253.35854328 435.18017578 261.28613281 C438.61170467 263.37178933 442.05348876 265.43919946 445.5 267.5 C453.855561 272.49971869 462.18041484 277.55050649 470.49462891 282.61865234 C475.84319231 285.87784077 481.19472733 289.12810614 486.59765625 292.296875 C487.41709717 292.78236816 488.23653809 293.26786133 489.08081055 293.76806641 C490.5462704 294.63483515 492.01731747 295.49227099 493.49536133 296.33740234 C499.81865608 300.10263338 504.76257719 304.8483049 507 312 C507.29149104 315.26868746 507.26281921 318.52571376 507.24330235 321.80549049 C507.24631448 323.30447429 507.24631448 323.30447429 507.24938747 324.83374059 C507.2536999 328.20316371 507.24366618 331.57239374 507.23377991 334.94180298 C507.23393588 337.3734878 507.23497352 339.80517269 507.23682016 342.23685682 C507.23882824 347.53451836 507.23460711 352.83212106 507.2249527 358.12977028 C507.21063677 366.00735107 507.20779572 373.88490657 507.20737036 381.76249887 C507.20634905 395.0141274 507.19615169 408.26573393 507.18089485 421.51735306 C507.16584277 434.6424931 507.15535303 447.76762464 507.15081596 460.89277267 C507.15053336 461.70855186 507.15025076 462.52433104 507.14995959 463.3648308 C507.14855508 467.5077401 507.14724299 471.65064942 507.1459735 475.79355876 C507.13688115 505.1491627 507.119268 534.50475571 507.09594727 563.86035156 C507.09453969 565.63596536 507.09313231 567.41157916 507.0917251 569.18719296 C507.0910275 570.06696806 507.0903299 570.94674315 507.08961116 571.8531781 C507.08608227 576.30427937 507.08255802 580.75538065 507.07904053 585.20648193 C507.07834207 586.08913595 507.07764361 586.97178996 507.07692398 587.88119107 C507.06074031 608.38758964 507.04712495 628.89398963 507.03442383 649.40039062 C507.03387771 650.27888274 507.0333316 651.15737485 507.03276893 652.06248793 C507.02032856 672.11012601 507.0090756 692.1577643 507.00016689 712.20540428 C506.9997915 713.04741577 506.99941611 713.88942727 506.99902934 714.75695426 C506.99566329 722.330285 506.99234493 729.90361576 506.9892792 737.47694664 C506.98162246 756.3830316 506.97099025 775.2891071 506.95309038 794.19518536 C506.94062922 807.36714548 506.93135709 820.53910412 506.92552502 833.71106888 C506.9219251 841.54448423 506.91542817 849.37788547 506.90492887 857.21129466 C506.89740204 863.04763174 506.89501547 868.88396331 506.89467566 874.72030549 C506.89370417 877.09098919 506.89100628 879.4616729 506.88647438 881.83235247 C506.88057972 885.0369837 506.88075495 888.24155704 506.8825388 891.44619179 C506.87934009 892.38184097 506.87614138 893.31749016 506.87284574 894.28149235 C506.875448 895.55610758 506.875448 895.55610758 506.87810284 896.85647261 C506.87719765 897.9565637 506.87719765 897.9565637 506.87627417 899.07887886 C506.93241141 901.22157142 506.93241141 901.22157142 508 904 C508.70844141 910.83139933 508.79554625 916.62450131 504.58203125 922.27734375 C499.23106201 928.1039547 492.30012762 931.65876059 485.42651367 935.40209961 C479.96667711 938.38475626 474.68266472 941.62334303 469.39379883 944.8984375 C464.00959771 948.2325288 458.59911554 951.52314865 453.1875 954.8125 C452.305177 955.34883057 452.305177 955.34883057 451.4050293 955.89599609 C440.96671824 962.23696134 430.4743636 968.48403144 419.96420288 974.70498657 C409.46562083 980.92055092 399.02102003 987.21863166 388.60449219 993.57055664 C378.8375878 999.51936097 369.00292806 1005.35096424 359.16046143 1011.17364502 C351.24054446 1015.861029 343.35286334 1020.58435815 335.58007812 1025.51318359 C329.45296415 1029.38355521 323.20038792 1033.03562291 316.95214844 1036.70605469 C309.46802034 1041.11131748 302.03994658 1045.60449287 294.625 1050.125 C282.83688809 1057.31043344 270.9844246 1064.38301144 259.09814453 1071.40478516 C251.94545451 1075.6336725 244.83570284 1079.9220147 237.76782227 1084.29125977 C234.67354956 1086.20153715 231.56141894 1088.07618194 228.4375 1089.9375 C223.59348639 1092.83122442 218.76431427 1095.74838358 213.9453125 1098.68359375 C200.67085022 1106.76860619 187.35619801 1114.77820725 173.98077393 1122.69519043 C160.87820789 1130.4529497 147.85963155 1138.34367311 134.85498047 1146.26416016 C128.92088729 1149.87211316 122.96096294 1153.43667232 117 1157 C107.05768127 1162.94596452 97.13057429 1168.91528702 87.23583984 1174.94018555 C75.76105511 1181.92695477 64.24718239 1188.84203609 52.6875 1195.6875 C43.10636542 1201.36501808 33.5300349 1207.04944419 24 1212.8125 C23.09338623 1213.35672607 22.18677246 1213.90095215 21.25268555 1214.46166992 C17.2700765 1216.88034589 13.44576521 1219.3584049 9.75 1222.19921875 C2.04022444 1228.07793469 -4.38498283 1229.22565054 -14 1228 C-18.08244261 1226.61075087 -21.40736776 1224.36099438 -25 1222 C-26.60523169 1221.00322232 -28.21360486 1220.0114949 -29.82421875 1219.0234375 C-33.48869684 1216.77337821 -37.14442978 1214.51018994 -40.79296875 1212.234375 C-46.81455143 1208.4849028 -52.89144377 1204.83367992 -58.98486328 1201.20263672 C-62.99461192 1198.80961251 -66.99653078 1196.40350906 -71 1194 C-77.81008012 1189.91197706 -77.81008012 1189.91197706 -84.625 1185.83203125 C-93.62261059 1180.44804436 -102.58405266 1175.0050276 -111.54418945 1169.55899048 C-119.01659449 1165.01773288 -126.49640012 1160.4896016 -134 1156 C-142.52003952 1150.90211744 -151.00668445 1145.74991814 -159.49008179 1140.59140015 C-167.91399704 1135.4700029 -176.35420228 1130.37700355 -184.8125 1125.3125 C-192.66288297 1120.61101888 -200.4985881 1115.8868675 -208.3125 1111.125 C-209.24392822 1110.55740967 -210.17535645 1109.98981934 -211.13500977 1109.4050293 C-215.18780696 1106.93458539 -219.240138 1104.46337721 -223.29248047 1101.9921875 C-237.2121178 1093.50644269 -251.17130854 1085.09745131 -265.20825195 1076.80688477 C-275.16531603 1070.9192358 -285.04791056 1064.91462931 -294.91748047 1058.88183594 C-300.77247282 1055.30744333 -306.6362609 1051.7475197 -312.5 1048.1875 C-313.10456024 1047.82041931 -313.70912048 1047.45333862 -314.33200073 1047.07513428 C-323.20460823 1041.68854123 -332.09094554 1036.3260902 -341 1031 C-350.44137043 1025.35231049 -359.87850527 1019.70056451 -369.25 1013.9375 C-377.81668821 1008.67231896 -386.4719142 1003.55876687 -395.125 998.4375 C-403.70615594 993.35874483 -412.27533519 988.28048161 -420.68798828 982.92553711 C-428.02804682 978.29028322 -435.52852676 973.91865967 -443 969.5 C-460.52283598 959.13583835 -460.52283598 959.13583835 -468.81274414 953.86425781 C-473.26844995 951.04629543 -477.777161 948.32054876 -482.30078125 945.61328125 C-482.96382263 945.21644638 -483.62686401 944.81961151 -484.30999756 944.41075134 C-487.65696069 942.40912285 -491.00623134 940.41144564 -494.35791016 938.41772461 C-517.13194052 924.84816469 -517.13194052 924.84816469 -519.5461241 915.99795038 C-520.20229641 911.6637876 -520.14253151 907.38309734 -520.13701439 903.00545025 C-520.14099213 901.47579014 -520.14099213 901.47579014 -520.14505023 899.9152278 C-520.15274869 896.47624678 -520.15330261 893.03730144 -520.15390015 889.59831238 C-520.15791438 887.11656812 -520.16235254 884.63482452 -520.1671797 882.15308172 C-520.17789787 876.03375964 -520.18390212 869.91444759 -520.18788858 863.7951179 C-520.19289988 856.46660427 -520.20362759 849.13810175 -520.21437032 841.80959468 C-520.2399922 824.09761091 -520.2550333 806.38562283 -520.26788078 788.67362586 C-520.27213559 782.80824703 -520.27670131 776.94286852 -520.2814641 771.07749009 C-520.3067208 739.89522312 -520.32877032 708.71295561 -520.34119225 677.53068066 C-520.3441136 670.30715623 -520.34708112 663.08363181 -520.35009766 655.86010742 C-520.35046857 654.96267262 -520.35083947 654.06523783 -520.35122162 653.14060804 C-520.36338203 624.03182265 -520.39433534 594.92309766 -520.43601918 565.81434064 C-520.4787884 535.89313607 -520.50543076 505.97196341 -520.51066696 476.05072744 C-520.51140742 471.82644941 -520.51231811 467.60217143 -520.51332474 463.37789345 C-520.51351535 462.54650874 -520.51370597 461.71512404 -520.51390236 460.85854586 C-520.5174182 447.46983923 -520.53772619 434.08120819 -520.56412137 420.69252934 C-520.59024223 407.24040788 -520.59800347 393.78837392 -520.58702008 380.33623072 C-520.58103579 372.34156943 -520.5889941 364.3472046 -520.61685092 356.35258808 C-520.63610098 350.38731137 -520.62930912 344.4223664 -520.61228175 338.45707039 C-520.60946693 336.04053332 -520.6151618 333.62396873 -520.63009469 331.20747616 C-520.64912305 327.92849924 -520.63746283 324.65101493 -520.61803246 321.37207317 C-520.63088168 320.42870256 -520.6437309 319.48533196 -520.65696949 318.51337436 C-520.55959342 311.06051698 -518.05789336 306.51194419 -513.22753906 300.96435547 C-507.78701619 296.28575408 -501.83528877 292.71948963 -495.60678101 289.18048096 C-492.36376116 287.33699717 -489.13834313 285.46304492 -485.91015625 283.59375 C-484.9162664 283.01978989 -484.9162664 283.01978989 -483.90229797 282.43423462 C-477.26955083 278.59652754 -470.72520142 274.62227037 -464.1875 270.625 C-454.02631121 264.41895576 -443.81094642 258.31079738 -433.5625 252.25 C-424.82313207 247.08066766 -416.11005326 241.88323185 -407.5 236.5 C-398.20733273 230.68997991 -388.79109414 225.09962416 -379.35888672 219.52050781 C-369.86898651 213.90626237 -360.41411531 208.24039653 -351 202.5 C-340.93772087 196.36564149 -330.82833196 190.31608095 -320.6875 184.3125 C-308.71473285 177.2229231 -296.79787463 170.04922275 -284.92724609 162.78955078 C-279.4763839 159.4572055 -274.0212031 156.13198162 -268.5625 152.8125 C-267.98222046 152.459599 -267.40194092 152.106698 -266.80407715 151.74310303 C-256.56576002 145.52095451 -246.27139138 139.39591975 -235.9614563 133.29336548 C-225.46378751 127.07835434 -215.02010849 120.78081249 -204.60449219 114.42944336 C-195.52875647 108.9016145 -186.39590853 103.4732636 -177.25 98.0625 C-165.54968541 91.15505138 -165.54968541 91.15505138 -154 84 C-146.35382546 79.13959042 -138.54675817 74.5503814 -130.75 69.9375 C-120.21407118 63.70389059 -109.70601467 57.42934322 -99.25 51.0625 C-98.67210724 50.71065643 -98.09421448 50.35881287 -97.49880981 49.99630737 C-95.7921728 48.95717776 -94.08553949 47.91804205 -92.37890625 46.87890625 C-84.32051395 41.97301197 -76.23009211 37.12114361 -68.13427734 32.27734375 C-64.92118431 30.35433955 -61.71060938 28.4271469 -58.5 26.5 C-57.30209783 25.78122585 -56.1041809 25.06247628 -54.90625 24.34375 C-54.2875 23.9725 -53.66875 23.60125 -53.03125 23.21875 C-50.73958333 21.84375 -48.44791667 20.46875 -46.15625 19.09375 C-45.31046387 18.58626221 -44.46467773 18.07877441 -43.59326172 17.5559082 C-41.87619686 16.52570162 -40.15907525 15.49558961 -38.44189453 14.46557617 C-34.44689964 12.06911941 -30.45266694 9.67142393 -26.4609375 7.26953125 C-25.76742188 6.85251953 -25.07390625 6.43550781 -24.359375 6.00585938 C-23.06994671 5.23042563 -21.7808644 4.4544162 -20.4921875 3.67773438 C-13.75429418 -0.37265832 -7.89840631 -1.49439786 0 0 Z " fill="#FCFCFC" transform="translate(966,346)"/>
<path d="M0 0 C3.64429813 1.43363991 4.8390466 2.94172696 6.55859375 6.41796875 C7.25082031 7.78695312 7.25082031 7.78695312 7.95703125 9.18359375 C8.44558594 10.17488281 8.93414063 11.16617188 9.4375 12.1875 C13.60107794 20.41159703 17.90901472 28.50649557 22.5 36.5 C27.44334981 45.13979496 32.12630881 53.88513272 36.69360352 62.72875977 C40.06703486 69.24886993 43.55519865 75.68940758 47.14575195 82.09204102 C50.613114 88.28057176 54.00263546 94.50923882 57.375 100.75 C62.03276186 109.36890232 66.71191055 117.97557369 71.41186523 126.5715332 C74.09557275 131.48691386 76.76152283 136.41118045 79.40625 141.34765625 C84.91464887 151.628877 90.45780729 161.87547984 96.25 172 C102.19302953 182.39937596 107.79345211 192.96769916 113.37329102 203.56445312 C117.95441126 212.26430018 122.56100539 220.93886528 127.38012695 229.51000977 C130.95652304 235.88153925 134.41805439 242.31300908 137.875 248.75 C145.44619099 262.84201396 153.07190568 276.90254923 160.8125 290.90234375 C161.14285248 291.49984436 161.47320496 292.09734497 161.81356812 292.71295166 C162.14756622 293.31701843 162.48156433 293.92108521 162.82568359 294.54345703 C163.50880365 295.77896329 164.19190904 297.01447765 164.875 298.25 C165.21380188 298.86276794 165.55260376 299.47553589 165.90167236 300.10687256 C171.32996106 309.92904449 176.68195244 319.7901648 181.98950195 329.67822266 C186.14146495 337.4129805 190.33012666 345.12677809 194.54101562 352.82958984 C197.59166642 358.41203901 200.62615877 364.00289879 203.6496582 369.60009766 C209.3375114 380.12891698 215.09456611 390.61750134 220.89187622 401.08627319 C225.9033937 410.14094032 230.8239837 419.24008197 235.6875 428.375 C240.26112415 436.96383375 244.92701796 445.48614706 249.75 453.9375 C254.31048344 461.92902712 258.67653206 469.99633164 262.91162109 478.16455078 C267.62298242 487.24137602 272.54000267 496.2017693 277.45410156 505.16992188 C279.53446058 508.97843762 281.59649393 512.79673113 283.65844727 516.61523438 C289.85654666 528.09298494 296.1312747 539.52687228 302.44433594 550.94165039 C303.70229945 553.2164093 304.95902868 555.49185135 306.21435547 557.76806641 C307.4057605 559.92445413 308.60271758 562.07778358 309.80517578 564.22802734 C310.63057861 565.71423584 310.63057861 565.71423584 311.47265625 567.23046875 C311.9612915 568.10469482 312.44992676 568.9789209 312.95336914 569.87963867 C314 572 314 572 314 574 C107.42 574 -99.16 574 -312 574 C-310.87583016 568.37915081 -310.87583016 568.37915081 -309.171875 565.41796875 C-308.79119873 564.74612549 -308.41052246 564.07428223 -308.01831055 563.38208008 C-307.59976807 562.65786865 -307.18122559 561.93365723 -306.75 561.1875 C-305.83321738 559.57111596 -304.9179294 557.95388355 -304.00390625 556.3359375 C-303.5155127 555.47323242 -303.02711914 554.61052734 -302.52392578 553.72167969 C-299.85256848 548.95072627 -297.27675088 544.12834303 -294.6875 539.3125 C-290.44670918 531.44510186 -286.11752468 523.63727763 -281.6875 515.875 C-276.26310008 506.36223887 -271.09245688 496.72941564 -265.96905518 487.05285645 C-261.61780363 478.83964657 -257.18190201 470.69171694 -252.5625 462.625 C-246.89361798 452.7202851 -241.52938727 442.66838 -236.19863892 432.57940674 C-231.74733716 424.15535047 -227.26342466 415.75684485 -222.59814453 407.44873047 C-219.22702506 401.43934359 -215.95532791 395.37857112 -212.6875 389.3125 C-208.32260668 381.21583865 -203.86501101 373.18010422 -199.3125 365.1875 C-194.98569357 357.58978434 -190.81985401 349.93332162 -186.79248047 342.17333984 C-183.6431703 336.13935688 -180.3159719 330.22070575 -176.9375 324.3125 C-171.60157637 314.97143465 -166.51739592 305.51419511 -161.5 296 C-156.11624547 285.79245277 -150.61840612 275.67582852 -144.8828125 265.66015625 C-140.07146054 257.21939735 -135.52006904 248.64953167 -130.9750061 240.06375122 C-125.97049525 230.61630612 -120.81504794 221.27231759 -115.51171875 211.98828125 C-112.22373882 206.21586761 -109.06019649 200.39609836 -106 194.5 C-102.41816443 187.59928252 -98.6657037 180.81530462 -94.8125 174.0625 C-89.88743373 165.42404944 -85.1154724 156.7116979 -80.4375 147.9375 C-80.12086395 147.34361481 -79.80422791 146.74972961 -79.47799683 146.1378479 C-78.84239955 144.94549733 -78.20681494 143.75313999 -77.57124329 142.56077576 C-73.56410562 135.04345894 -69.50549719 127.55600374 -65.41552734 120.08349609 C-62.87145873 115.43399138 -60.33787263 110.77931332 -57.82421875 106.11328125 C-52.54131176 96.30999782 -47.20555679 86.54814847 -41.6875 76.875 C-35.8953145 66.71081983 -30.37379323 56.41493449 -24.89160156 46.08178711 C-24.219442 44.81491967 -23.54724184 43.54807378 -22.875 42.28125 C-22.38214508 41.35240746 -22.38214508 41.35240746 -21.8793335 40.40480042 C-17.41043942 31.99361098 -12.82612831 23.64545745 -8.25146484 15.29150391 C-5.47530734 10.20820029 -2.7356211 5.10520839 0 0 Z " fill="#000000" transform="translate(958,590)"/>
<path d="M0 0 C1.54494141 0.36351562 1.54494141 0.36351562 3.12109375 0.734375 C3.80051025 0.89421875 4.47992676 1.0540625 5.17993164 1.21875 C6.70649563 1.57798037 8.23302464 1.93735939 9.75952148 2.296875 C13.62275023 3.20652028 17.48638782 4.11428111 21.3515625 5.015625 C33.01780819 7.73941451 44.64661653 10.59163414 56.234375 13.6328125 C57.3682666 13.92953857 58.5021582 14.22626465 59.67041016 14.53198242 C61.87406898 15.10960579 64.0769552 15.69019039 66.27880859 16.2746582 C73.27998788 18.10991365 80.30541653 19.7642582 87.3671875 21.34765625 C100.31776792 24.25554605 113.17540493 27.51072399 126.04101562 30.77050781 C137.8147193 33.74989842 149.59816634 36.62613439 161.44915771 39.2827301 C168.42484803 40.85180197 175.34348477 42.58685765 182.25 44.4375 C190.86653798 46.70811152 199.49580688 48.84954769 208.1875 50.8125 C220.1100244 53.50890993 231.95843604 56.46983949 243.8102417 59.45800781 C256.61972657 62.68494304 269.45212312 65.7949984 282.3125 68.8125 C292.37305423 71.1734409 302.42206109 73.53764802 312.39564514 76.24819946 C317.75049812 77.69371925 323.12878009 79.00974107 328.52734375 80.28125 C330.39448976 80.72346442 332.26159429 81.165854 334.12866211 81.60839844 C335.09351532 81.83684448 336.05836853 82.06529053 337.05245972 82.30065918 C341.93261017 83.45853595 346.81009944 84.6274775 351.6875 85.796875 C352.68096939 86.0350293 353.67443878 86.27318359 354.69801331 86.51855469 C357.79874519 87.26207976 360.89938737 88.00597779 364 88.75 C365.60763214 89.13569153 365.60763214 89.13569153 367.2477417 89.5291748 C387.17533663 94.31114748 407.0918392 99.13779303 427 104 C427.1282446 110.56106348 427.21494683 117.12179642 427.2746582 123.68383789 C427.29958666 125.90954667 427.33354219 128.13517546 427.37719727 130.3605957 C427.63196295 143.69533149 427.20883107 154.63650434 422 167 C421.5169375 168.49705722 421.05513963 170.00140745 420.62890625 171.515625 C418.52064317 178.89840706 416.32287239 186.24430642 414 193.5625 C413.74613525 194.36284668 413.49227051 195.16319336 413.23071289 195.98779297 C412.27029842 199.01151377 411.30796866 202.03461908 410.34375 205.05712891 C407.79368471 213.06393547 405.39487264 221.09652632 403.125 229.1875 C400.32184345 239.15651081 397.07093836 248.94659552 393.75341797 258.75390625 C391.55125238 265.31901428 389.56869664 271.94444802 387.70703125 278.61328125 C384.71986239 289.28934093 381.45368415 299.81847937 377.89819336 310.31958008 C375.46438841 317.53087568 373.23857736 324.77615262 371.13671875 332.08984375 C370.02990284 335.93472271 368.83378872 339.74836085 367.625 343.5625 C365.17776863 351.29492852 362.91425377 359.07854741 360.67431641 366.87329102 C356.82522077 380.20482947 352.56463369 393.4036501 348.26449585 406.59494019 C344.7268606 417.45514053 341.22684138 428.31885657 337.99853516 439.27587891 C336.3852087 444.75037853 334.67904811 450.19002645 332.9375 455.625 C330.69286265 462.63631467 328.67853522 469.68844405 326.75366211 476.79345703 C325.41797884 481.6631244 323.81973047 486.35106516 322.01953125 491.0703125 C320.7237629 494.79378477 319.70957757 498.56882571 318.6875 502.375 C316.60907421 510.09311651 314.17224205 517.64847919 311.59765625 525.21411133 C309.41710732 531.65234941 307.42799911 538.12576458 305.59765625 544.67211914 C304.66473827 547.96320083 303.68079556 551.01107396 302 554 C299.28343654 551.57660174 297.76432917 548.9987424 296.06640625 545.79296875 C295.50622803 544.74286621 294.9460498 543.69276367 294.36889648 542.61083984 C293.77278564 541.4811377 293.1766748 540.35143555 292.5625 539.1875 C291.93431922 538.00698126 291.30548599 536.82680949 290.67602539 535.64697266 C289.71392664 533.84363004 288.75214631 532.04012887 287.7922821 530.2355957 C284.87939539 524.76070297 281.91575291 519.31452796 278.9375 513.875 C274.77444842 506.25925607 270.63030103 498.63355562 266.5 491 C261.85675229 482.41926169 257.19598829 473.84834807 252.51733398 465.28686523 C249.93790656 460.5637616 247.36882249 455.83541885 244.81640625 451.09765625 C239.57943116 441.38142968 234.29049717 431.70764694 228.8125 422.125 C223.3198053 412.49965804 218.10342117 402.74051136 212.9375 392.9375 C212.35450638 391.83122757 212.35450638 391.83122757 211.75973511 390.7026062 C211.37294586 389.96857574 210.98615662 389.23454529 210.58764648 388.47827148 C203.27920318 374.60946597 195.78704671 360.8489747 188.203125 347.12890625 C186.84365379 344.66932399 185.48429788 342.20967805 184.125 339.75 C183.78550323 339.13584229 183.44600647 338.52168457 183.09622192 337.88891602 C176.53382543 326.01334233 170.0911093 314.07525141 163.67480469 302.12011719 C156.71582952 289.15572905 149.72712115 276.2195841 142.4375 263.4375 C137.58536236 254.92794303 132.99471712 246.31200583 128.50830078 237.60498047 C125.08926128 231.00227417 121.50716922 224.51452088 117.8125 218.0625 C112.12443605 208.12568754 106.74220734 198.04567957 101.40289307 187.91925049 C96.29555819 178.23951002 91.04075382 168.66645803 85.6015625 159.16796875 C81.37063296 151.74528535 77.42017737 144.19705997 73.50732422 136.60302734 C70.08855365 130.00099406 66.50662565 123.51399612 62.8125 117.0625 C57.50300883 107.78160322 52.4333331 98.38942373 47.4375 88.9375 C47.07384338 88.24957367 46.71018677 87.56164734 46.33551025 86.85287476 C45.97358582 86.16819122 45.61166138 85.48350769 45.23876953 84.77807617 C44.51861049 83.41582336 43.79839627 82.05359972 43.078125 80.69140625 C42.72720795 80.02769516 42.37629089 79.36398407 42.01473999 78.68016052 C37.56229796 70.26940439 32.99359923 61.92266655 28.41503906 53.58007812 C24.45943551 46.36772162 20.52610059 39.14315847 16.59130859 31.91943359 C15.47547969 29.87232067 14.35852048 27.82582364 13.24072266 25.77978516 C11.44950212 22.50045888 9.66194525 19.21915749 7.875 15.9375 C7.31820557 14.91994629 6.76141113 13.90239258 6.18774414 12.85400391 C5.66946045 11.90058105 5.15117676 10.9471582 4.6171875 9.96484375 C4.15940918 9.1255835 3.70163086 8.28632324 3.22998047 7.42163086 C1.99664879 4.99340201 0.97138851 2.54301914 0 0 Z " fill="#000000" transform="translate(1002,576)"/>
<path d="M0 0 C-7.64424127 14.40050706 -15.35309124 28.74321995 -23.43432617 42.90454102 C-27.17137497 49.47444893 -30.72662095 56.11956429 -34.20800781 62.82763672 C-37.35719338 68.86127552 -40.68426306 74.77957823 -44.0625 80.6875 C-49.45742568 90.13369418 -54.60629946 99.69546922 -59.6875 109.3125 C-65.21392844 119.76891878 -70.8075851 130.17571055 -76.59619141 140.48974609 C-79.66760752 145.98197227 -82.70803526 151.4914254 -85.75 157 C-86.26442657 157.93110092 -86.26442657 157.93110092 -86.78924561 158.88101196 C-91.64869888 167.68062798 -96.4419616 176.51328374 -101.1875 185.375 C-105.4817565 193.39400215 -109.86522339 201.35026371 -114.375 209.25 C-119.47528328 218.1872874 -124.36517029 227.22348316 -129.1875 236.3125 C-134.55063068 246.419553 -139.98796069 256.47502285 -145.58007812 266.45751953 C-148.65420183 271.96197694 -151.70199729 277.48105015 -154.75 283 C-155.09286041 283.62055267 -155.43572083 284.24110535 -155.78897095 284.88046265 C-160.64851147 293.68026362 -165.44186535 302.51310399 -170.1875 311.375 C-174.48175514 319.39399962 -178.86514805 327.3503085 -183.375 335.25 C-188.78026315 344.71978873 -193.92855662 354.3105947 -199.0302124 363.94567871 C-203.40362147 372.20012802 -207.86113947 380.39049347 -212.5 388.5 C-217.93109586 397.99612958 -223.10430662 407.61471757 -228.22988892 417.27764893 C-232.52727027 425.37883038 -236.86506386 433.4509416 -241.35107422 441.44970703 C-244.7364651 447.4943429 -248.02651733 453.58835537 -251.3125 459.6875 C-255.67743266 467.78414087 -260.13498841 475.81989476 -264.6875 483.8125 C-268.5807596 490.64892311 -272.37500939 497.51755122 -276 504.5 C-281.71059628 515.49627254 -287.85393335 526.24287648 -294 537 C-294.86858474 538.52338325 -295.73708257 540.04681606 -296.60546875 541.5703125 C-298.39972505 544.71579414 -300.19808511 547.85889762 -302 551 C-305.15816942 545.13482821 -306.73732951 538.60598608 -308.625 532.25 C-313.15013084 517.10009438 -317.74112856 501.96734822 -322.59643555 486.91967773 C-326.19929133 475.75134773 -329.50860648 464.50892956 -332.71655273 453.22192383 C-334.54413057 446.8330978 -336.46163259 440.4970661 -338.58984375 434.203125 C-340.55023229 428.40389397 -342.31939884 422.5898515 -343.9375 416.6875 C-346.03733503 409.17006316 -348.36459409 401.77144982 -350.89038086 394.38745117 C-352.85081385 388.59898428 -354.42200005 382.75204128 -355.94140625 376.83203125 C-357.12225322 372.55745235 -358.50352492 368.38227105 -359.9375 364.1875 C-361.95614345 358.27122027 -363.8032257 352.34643228 -365.4375 346.3125 C-369.09509102 332.82111606 -373.11947516 319.42070817 -377.625 306.1875 C-379.37173384 301.03774425 -380.89655245 295.87178842 -382.3125 290.625 C-384.25190193 283.44874779 -386.44876678 276.38057345 -388.75 269.3125 C-391.88424645 259.67820287 -394.77752766 249.98939358 -397.5625 240.25 C-400.3579102 230.47530287 -403.31753828 220.78739816 -406.61303711 211.16845703 C-408.72361198 204.96612818 -410.52602237 198.71611071 -412.2253418 192.39013672 C-413.84943512 186.39152354 -415.79580524 180.55249848 -417.80859375 174.671875 C-419.05533125 170.82947089 -420.11731163 166.97252559 -421.125 163.0625 C-422.46539004 157.87459362 -424.02830652 152.97617878 -426 148 C-426.84281898 145.15948148 -427.12243786 142.64936863 -427.11352539 139.69042969 C-427.11344986 138.84986023 -427.11337433 138.00929077 -427.11329651 137.14324951 C-427.10813522 136.24519592 -427.10297394 135.34714233 -427.09765625 134.421875 C-427.0962413 133.4953009 -427.09482635 132.56872681 -427.09336853 131.61407471 C-427.08777824 128.65935008 -427.0752275 125.70470167 -427.0625 122.75 C-427.05748375 120.74479276 -427.05292106 118.73958433 -427.04882812 116.734375 C-427.03781199 111.82288737 -427.020554 106.9114566 -427 102 C-421.13736872 100.52173562 -415.27388235 99.04692295 -409.40966797 97.57495117 C-407.42572065 97.07649039 -405.44198727 96.5771771 -403.45849609 96.0769043 C-391.817373 93.14149667 -380.16138116 90.32235191 -368.44717407 87.69293213 C-362.17629501 86.28130505 -355.95257347 84.75075624 -349.75 83.0625 C-341.63756909 80.90165676 -333.49910541 78.92202718 -325.3125 77.0625 C-311.48750084 73.91923598 -297.74458803 70.47575134 -284 67 C-257.1414301 60.2089721 -257.1414301 60.2089721 -244.75 57.4375 C-234.38727216 55.11897993 -224.09352523 52.56221488 -213.79882812 49.95996094 C-170.80207397 39.09471432 -170.80207397 39.09471432 -156.39672852 35.90209961 C-147.34111007 33.88301845 -138.32742605 31.69233462 -129.3125 29.5 C-128.49716797 29.30174622 -127.68183594 29.10349243 -126.84179688 28.89923096 C-118.14424883 26.78102573 -109.45635035 24.64197914 -100.8125 22.3125 C-92.88354304 20.17649933 -84.89736914 18.33751209 -76.89160156 16.51318359 C-66.92898428 14.23433182 -56.99296521 11.8522285 -47.0625 9.4375 C-46.26280792 9.24313354 -45.46311584 9.04876709 -44.63919067 8.84851074 C-34.8661897 6.46969807 -25.10261562 4.06491026 -15.40063477 1.40795898 C-4.99820861 -1.42176018 -4.99820861 -1.42176018 0 0 Z " fill="#000000" transform="translate(916,579)"/>
<path d="M0 0 C197.01 0 394.02 0 597 0 C595.27225982 3.45548035 594.20448678 5.02829281 591.55078125 7.609375 C590.52500977 8.61871094 590.52500977 8.61871094 589.47851562 9.6484375 C588.76373047 10.34195312 588.04894531 11.03546875 587.3125 11.75 C582.5705046 16.37333564 578.02273202 21.04931324 573.70385742 26.07128906 C570.9461113 29.19296758 567.97515336 32.0874381 565 35 C559.61357955 40.31105805 559.61357955 40.31105805 554.5625 45.9375 C550.53953297 50.70126914 546.04038095 55.00902889 541.59204102 59.37084961 C538.4451397 62.47509776 535.41671577 65.61873079 532.53125 68.96875 C528.26860087 73.91227222 523.61799832 78.4321549 518.9609375 83 C515.02996164 86.88544332 511.32141914 90.87527415 507.71484375 95.0625 C504.95114441 98.18503958 501.97847354 101.08419645 499 104 C493.58400699 109.34368868 493.58400699 109.34368868 488.5 115 C485.21603046 118.88714761 481.61386156 122.42354417 478 126 C472.61461721 131.3120156 472.61461721 131.3120156 467.5625 136.9375 C464.10961385 141.02621173 460.29922582 144.73734476 456.5 148.5 C450.82499967 154.08544607 450.82499967 154.08544607 445.5 160 C441.50285581 164.74660873 437.01876691 169.03021627 432.59179688 173.37109375 C429.44497522 176.47525776 426.41664009 179.61881865 423.53125 182.96875 C419.26860087 187.91227222 414.61799832 192.4321549 409.9609375 197 C406.02996164 200.88544332 402.32141914 204.87527415 398.71484375 209.0625 C395.95114441 212.18503958 392.97847354 215.08419645 390 218 C384.58400699 223.34368868 384.58400699 223.34368868 379.5 229 C375.68910331 233.5108573 371.45267971 237.59892706 367.23632812 241.7265625 C364.22782597 244.69107081 361.34905962 247.70379299 358.59375 250.90625 C354.11198557 256.09829406 349.20673783 260.84168324 344.31640625 265.64453125 C340.24109534 269.67562541 336.37296755 273.79771943 332.63476562 278.14257812 C330.21472101 280.89223455 327.62159619 283.44437776 325 286 C321.13018358 289.81732816 317.45462 293.69930015 313.93359375 297.84375 C309.51419659 302.77204744 304.7139877 307.35567714 300 312 C296.07552641 310.43923234 293.9478753 307.954494 291.1875 304.8125 C286.7050888 299.78337752 282.04223298 294.98420273 277.25 290.25 C272.98886631 286.03191336 268.86384274 281.80706325 265 277.21875 C261.36927048 273.19090944 257.46278673 269.42461585 253.59179688 265.62890625 C250.47600577 262.55535214 247.47636886 259.44662946 244.625 256.125 C240.49498912 251.33530235 236.0051663 246.93399464 231.5 242.5 C226.37969207 237.46058161 221.40458376 232.39908247 216.72460938 226.94726562 C213.64601385 223.47120704 210.31357479 220.25009634 207 217 C202.37150901 212.46017742 197.94623154 207.85013162 193.71484375 202.9375 C190.95130907 199.81514647 187.98026525 196.91374147 185 194 C181.39128593 190.47183759 177.88675546 186.9211632 174.59375 183.09375 C170.77714387 178.67227996 166.66528078 174.59076771 162.5 170.5 C158.37675426 166.45051536 154.299883 162.41641052 150.53125 158.03125 C146.58812608 153.44821339 142.30889602 149.23659911 138 145 C133.05042963 140.13347611 128.26669814 135.22953931 123.7421875 129.96484375 C120.65601949 126.48425517 117.31960733 123.25601331 114 120 C109.39197045 115.48024688 104.98982203 110.89067773 100.77734375 106 C97.67613415 102.51028722 94.33165868 99.2678338 91 96 C87.04132627 92.11716293 83.14941662 88.23659338 79.53125 84.03125 C75.73857952 79.62796818 71.64426794 75.57013076 67.5 71.5 C62.72119198 66.8066805 58.12844906 62.06008022 53.75976562 56.98242188 C50.66605994 53.49728173 47.32563522 50.26192574 44 47 C39.39197045 42.48024688 34.98982203 37.89067773 30.77734375 33 C27.67613415 29.51028722 24.33165868 26.2678338 21 23 C15.75407702 17.85457363 10.76892408 12.59080248 6 7 C4.02 4.69 2.04 2.38 0 0 Z " fill="#000000" transform="translate(660,1208)"/>
<path d="M0 0 C0 39.93 0 79.86 0 121 C-24.255 126.94 -24.255 126.94 -49 133 C-65.9769107 137.25452216 -65.9769107 137.25452216 -82.94921875 141.52734375 C-90.97059332 143.52795129 -99.0170013 145.38751733 -107.08247375 147.2010498 C-115.04502716 148.99580249 -122.96265217 150.93311345 -130.875 152.9375 C-132.24651121 153.28258952 -133.61809486 153.62739128 -134.98974609 153.97192383 C-140.13434577 155.26492189 -145.27735498 156.56417376 -150.41992188 157.86523438 C-161.93920577 160.77856215 -173.46602269 163.58745424 -185.06274414 166.17651367 C-190.93100026 167.49794466 -196.75257656 168.94277583 -202.5625 170.5 C-214.56011984 173.71426917 -226.64703097 176.5251063 -238.7449646 179.33474731 C-242.28885905 180.15831545 -245.83211511 180.98460019 -249.375 181.8125 C-250.46016907 182.06607269 -250.46016907 182.06607269 -251.56726074 182.32476807 C-263.48837265 185.11680578 -275.34913615 188.10756546 -287.19506836 191.20141602 C-295.4238452 193.34756637 -303.66601576 195.40464867 -311.94799805 197.33520508 C-315.88855179 198.25412325 -319.8163402 199.20025246 -323.73046875 200.2265625 C-324.47433838 200.42024414 -325.21820801 200.61392578 -325.98461914 200.81347656 C-327.97326149 201.33519179 -329.95940036 201.86642423 -331.9453125 202.3984375 C-335 203 -335 203 -338 202 C-310.51391322 185.25107606 -310.51391322 185.25107606 -299.00732422 178.5222168 C-287.00597893 171.50153298 -275.11708525 164.29240911 -263.2409668 157.0625 C-262.07731837 156.35415489 -260.91366268 155.64582169 -259.75 154.9375 C-259.16642731 154.58220215 -258.58285461 154.2269043 -257.9815979 153.86083984 C-247.64843802 147.5731005 -237.25402674 141.39267199 -226.84262085 135.2355957 C-216.42847009 129.07349887 -206.09739251 122.79077507 -195.80761719 116.42333984 C-189.46877224 112.50490724 -183.09486783 108.66466098 -176.65478516 104.91552734 C-170.03173092 101.04773942 -163.48647213 97.05401449 -156.9375 93.0625 C-146.41991906 86.65216935 -135.85124422 80.33342703 -125.25 74.0625 C-116.51504739 68.89533411 -107.80304461 63.7068705 -99.22851562 58.27587891 C-94.95253273 55.57333514 -90.61958915 52.9856428 -86.25 50.4375 C-78.75767902 46.06829387 -71.34343134 41.57627103 -63.9375 37.0625 C-52.10051167 29.8504589 -40.20315272 22.74421565 -28.27514648 15.68383789 C-27.64467911 15.31053848 -27.01421173 14.93723907 -26.36463928 14.55262756 C-25.11966792 13.81580366 -23.87434329 13.07957628 -22.62864685 12.34397888 C-19.33513282 10.39622221 -16.05460302 8.42944611 -12.78759766 6.4375 C-12.09926346 6.01927979 -11.41092926 5.60105957 -10.70173645 5.17016602 C-9.37758264 4.3645019 -8.05560927 3.55524023 -6.73612976 2.74194336 C-2.222836 0 -2.222836 0 0 0 Z " fill="#010101" transform="translate(937,407)"/>
<path d="M0 0 C3.30043894 1.65021947 6.42450927 3.39215542 9.59375 5.2734375 C11.24685181 6.25364868 11.24685181 6.25364868 12.93334961 7.25366211 C14.12228549 7.9606866 15.31116767 8.6678014 16.5 9.375 C17.73117132 10.10625143 18.96237279 10.8374521 20.19360352 11.56860352 C32.6054543 18.94273366 45.00003283 26.34448838 57.33203125 33.8515625 C59.63796981 35.25529227 61.94393648 36.65897557 64.25 38.0625 C64.83348206 38.417677 65.41696411 38.772854 66.01812744 39.13879395 C76.42026511 45.46730995 86.88001369 51.6954067 97.35751343 57.89816284 C108.85027798 64.70344126 120.27485705 71.61438203 131.67089844 78.58056641 C135.40395839 80.85561992 139.15578811 83.09866022 142.90869141 85.34082031 C146.95521404 87.76288976 150.98789127 90.20695658 155.015625 92.66015625 C167.67508108 100.36980983 180.36681034 108.01715917 193.125 115.5625 C203.85600366 121.90920036 214.51061523 128.35993358 225.10913086 134.92626953 C236.46668334 141.94347345 247.95736047 148.73324618 259.44921875 155.52734375 C272.72678854 163.37733847 285.92158867 171.36280568 299.10058594 179.37695312 C300.32226176 180.11979803 301.54394146 180.86263655 302.765625 181.60546875 C303.66834137 182.15447342 303.66834137 182.15447342 304.58929443 182.71456909 C308.69496079 185.21031775 312.80703241 187.69518983 316.921875 190.17578125 C317.99115234 190.82200439 319.06042969 191.46822754 320.16210938 192.1340332 C322.18772769 193.3580845 324.21501858 194.57937311 326.24414062 195.79760742 C327.13810547 196.33877197 328.03207031 196.87993652 328.953125 197.4375 C329.73848633 197.91058594 330.52384766 198.38367188 331.33300781 198.87109375 C331.88311523 199.24363281 332.43322266 199.61617187 333 200 C333 200.33 333 200.66 333 201 C324.4285586 200.48776247 316.3916101 198.51046123 308.11691284 196.3638916 C304.09860493 195.32168783 300.07448121 194.30240037 296.05078125 193.28125 C294.86670433 192.97988129 294.86670433 192.97988129 293.65870667 192.67242432 C287.44045455 191.09553782 281.20178825 189.63321211 274.9375 188.25 C267.61015573 186.62612807 260.35487163 184.82077738 253.10693359 182.87402344 C246.41000151 181.08313011 239.67836131 179.46693347 232.93017578 177.8815918 C225.90821073 176.22863711 218.90970225 174.49196809 211.92211914 172.69921875 C208.03566429 171.71291319 204.15706887 170.81753912 200.21875 170.0625 C194.13723605 168.87490191 188.17425817 167.27724345 182.1875 165.6875 C170.50408219 162.58839401 158.76469781 159.77150085 147 157 C103.32471898 146.69209688 103.32471898 146.69209688 87.31201172 142.42041016 C77.25583068 139.74812615 67.12625061 137.38924283 57 135 C50.7646667 133.52534005 44.52988795 132.0483407 38.29541016 130.57006836 C36.50456356 130.14585154 34.71354567 129.72235726 32.92236328 129.29956055 C30.25245414 128.66914521 27.58320988 128.03597559 24.9140625 127.40234375 C24.13866119 127.21993637 23.36325989 127.03752899 22.56436157 126.84959412 C14.99568155 125.04784482 7.52805812 123.00748216 0 121 C0 81.07 0 41.14 0 0 Z " fill="#020202" transform="translate(981,406)"/>
<path d="M0 0 C2 1 2 1 3.078125 4.11328125 C3.4762297 5.5109119 3.86620953 6.91087107 4.25 8.3125 C4.69460887 9.87910611 5.13995055 11.4455044 5.5859375 13.01171875 C5.81764648 13.83333496 6.04935547 14.65495117 6.28808594 15.50146484 C7.44303537 19.5548779 8.65878762 23.58962423 9.875 27.625 C10.1227417 28.44943604 10.3704834 29.27387207 10.62573242 30.12329102 C16.25149624 48.85682181 16.25149624 48.85682181 22.0637207 67.53295898 C23.81382184 73.05177106 25.43746484 78.57686701 26.875 84.1875 C28.69294201 91.17222457 30.92074904 97.97995983 33.27490234 104.80151367 C35.35022527 110.86401933 37.19316198 116.98255809 38.98350525 123.13389587 C40.58517781 128.62461266 42.24462973 134.09533803 43.9375 139.55859375 C44.18794571 140.36774231 44.43839142 141.17689087 44.69642639 142.01055908 C45.71915922 145.31209406 46.74344879 148.61313822 47.77050781 151.91333008 C50.7402545 161.46312223 53.60069316 171.02668396 56.24510193 180.67192078 C59.30483775 191.80390121 62.87717605 202.77004636 66.4375 213.75 C69.17331095 222.22053447 71.86176197 230.69481913 74.32568359 239.24853516 C75.66586575 243.89893225 77.09610649 248.51348348 78.5625 253.125 C80.16642652 258.17752247 81.61531666 263.23924651 82.9375 268.375 C84.62354311 274.89805203 86.6902938 281.23617931 88.98217773 287.57177734 C90.29242397 291.31741438 91.18590164 294.80987756 91.5793457 298.76806641 C91.66070267 299.56467682 91.74205963 300.36128723 91.82588196 301.18203735 C91.91207039 302.08192886 91.91207039 302.08192886 92 303 C75.44683483 311.89033592 58.6331566 320.26073771 41.82421875 328.65307617 C37.76226967 330.68116229 33.702171 332.71292323 29.64256287 334.74569035 C26.4949505 336.32129849 23.3463929 337.89500992 20.19754028 339.46813774 C18.69811668 340.21751673 17.19898837 340.96748688 15.70016479 341.71806526 C13.62268475 342.75807145 11.54394538 343.79551562 9.46484375 344.83227539 C8.285271 345.42166397 7.10569824 346.01105255 5.89038086 346.61830139 C3 348 3 348 0 349 C0 233.83 0 118.66 0 0 Z " fill="#040404" transform="translate(489,872)"/>
<path d="M0 0 C0.33 0 0.66 0 1 0 C1 114.18 1 228.36 1 346 C-4.4464993 343.57933365 -9.82729034 341.16064094 -15.18359375 338.56640625 C-16.15724129 338.0951683 -16.15724129 338.0951683 -17.15055847 337.6144104 C-19.2470476 336.59883267 -21.34234415 335.58082514 -23.4375 334.5625 C-24.16209412 334.21095856 -24.88668823 333.85941711 -25.63323975 333.4972229 C-36.3831973 328.28084764 -47.09128836 322.98809587 -57.75952148 317.60620117 C-63.02655552 314.95667304 -68.31205407 312.36280372 -73.6484375 309.85546875 C-75.25017822 309.10197144 -75.25017822 309.10197144 -76.88427734 308.33325195 C-78.90967244 307.3853061 -80.93848775 306.44462201 -82.97119141 305.51245117 C-83.86757324 305.09326416 -84.76395508 304.67407715 -85.6875 304.2421875 C-86.47511719 303.8797998 -87.26273438 303.51741211 -88.07421875 303.14404297 C-90 302 -90 302 -92 299 C-91.77148438 297.03320312 -91.77148438 297.03320312 -91.09375 294.78125 C-90.8474585 293.94094238 -90.60116699 293.10063477 -90.34741211 292.23486328 C-90.06776611 291.3323584 -89.78812012 290.42985352 -89.5 289.5 C-89.22099854 288.56526855 -88.94199707 287.63053711 -88.65454102 286.66748047 C-87.78513069 283.77335242 -86.89554433 280.88613788 -86 278 C-85.60337158 276.71077637 -85.60337158 276.71077637 -85.19873047 275.39550781 C-82.74364527 267.43332339 -80.18369985 259.51319126 -77.5 251.625 C-75.18720631 244.75333414 -73.19617681 237.80869999 -71.23046875 230.83081055 C-69.5473239 224.86913307 -67.77219567 218.947345 -65.89892578 213.04296875 C-63.9050521 206.74686161 -62.01670853 200.42033313 -60.14257812 194.08764648 C-58.19137159 187.52905328 -56.04764171 181.04895063 -53.82421875 174.578125 C-51.04585379 166.4435307 -48.62066466 158.24830323 -46.30151367 149.97167969 C-44.68537077 144.25674303 -42.9226436 138.61873314 -41 133 C-38.89550571 126.83688654 -37.00067692 120.64765111 -35.25 114.375 C-32.28627226 103.76940499 -28.99486119 93.27313425 -25.68823242 82.77099609 C-23.01159522 74.26544689 -20.38300252 65.74841317 -17.88867188 57.18725586 C-16.87540328 53.74565009 -15.7899672 50.37835483 -14.49609375 47.03125 C-12.85884135 42.76316749 -11.66802559 38.4158903 -10.5 34 C-9.14943731 28.89400171 -7.65662893 23.95725679 -5.74951172 19.03125 C-4.41413689 15.41225372 -3.37556678 11.70628114 -2.3125 8 C-2.08755859 7.22527344 -1.86261719 6.45054687 -1.63085938 5.65234375 C-1.08446633 3.76903154 -0.54183106 1.88462976 0 0 Z " fill="#010101" transform="translate(1428,874)"/>
<path d="M0 0 C4.92718911 1.4938454 9.35258826 3.5398196 13.9296875 5.85131836 C15.08697357 6.42974236 15.08697357 6.42974236 16.26763916 7.01985168 C18.80534207 8.289397 21.3401663 9.56458062 23.875 10.83984375 C25.64549516 11.72695845 27.41616849 12.61371763 29.18701172 13.50013733 C33.84219225 15.83153849 38.49495208 18.16773086 43.1472168 20.50494385 C47.87274378 22.87791868 52.60052225 25.24639852 57.328125 27.61523438 C64.96801477 31.44395979 72.60652418 35.27542207 80.2432251 39.11050415 C84.16027134 41.07744214 88.07895874 43.04103223 92 45 C88.54483491 47.88213645 85.04761967 50.26424113 81.15234375 52.51171875 C80.59224609 52.83690994 80.03214844 53.16210114 79.45507812 53.49714661 C78.24832288 54.19763148 77.04059915 54.8964501 75.83200073 55.59375 C72.5591318 57.48327178 69.29511138 59.38794198 66.03125 61.29296875 C65.36020737 61.68447113 64.68916473 62.07597351 63.99778748 62.4793396 C57.26703911 66.41417635 50.59514147 70.44300896 43.9375 74.5 C43.36585114 74.84811737 42.79420227 75.19623474 42.20523071 75.55490112 C39.30595318 77.32085018 36.40771347 79.08849174 33.51025391 80.85742188 C27.55239276 84.49467333 21.58980109 88.12414244 15.625 91.75 C14.74411209 92.28560547 14.74411209 92.28560547 13.84542847 92.83203125 C5.38342061 97.97477675 -3.11919178 103.04394414 -11.65625 108.06103516 C-19.52733125 112.69670276 -27.33097168 117.44073667 -35.13064575 122.19519043 C-44.85620912 128.12101052 -54.63509414 133.95231845 -64.4375 139.75 C-73.17679959 144.91945464 -81.88994214 150.11676527 -90.5 155.5 C-99.78705758 161.30651277 -109.19759295 166.89348483 -118.62399292 172.46942139 C-128.47281429 178.29633085 -138.28784778 184.17447398 -148.0625 190.125 C-148.65322296 190.48460815 -149.24394592 190.84421631 -149.85256958 191.21472168 C-152.62859636 192.90493259 -155.40440823 194.59549622 -158.18017578 196.28613281 C-161.61170467 198.37178933 -165.05348876 200.43919946 -168.5 202.5 C-174.99995528 206.38937953 -181.4775745 210.31522963 -187.95245361 214.24615479 C-189.79643755 215.36525184 -191.64109521 216.48323166 -193.48583984 217.60107422 C-198.92178794 220.89752119 -204.34888392 224.20579523 -209.73828125 227.578125 C-210.57576904 228.09971191 -211.41325684 228.62129883 -212.27612305 229.15869141 C-213.80400158 230.112484 -215.32785303 231.07276858 -216.84692383 232.04052734 C-218.52829507 233.08772409 -220.25956751 234.05420666 -222 235 C-222.66 234.67 -223.32 234.34 -224 234 C-223.28714844 233.29875 -222.57429688 232.5975 -221.83984375 231.875 C-215.54380963 225.67782816 -215.54380963 225.67782816 -209.625 219.125 C-206.43870567 215.38456753 -202.99119746 211.95196502 -199.5 208.5 C-196.07154618 205.10994409 -192.67739237 201.74805967 -189.5625 198.0625 C-185.59835723 193.37394535 -181.17783469 189.12894784 -176.79711914 184.83422852 C-176.20793701 184.25342529 -175.61875488 183.67262207 -175.01171875 183.07421875 C-174.48022217 182.55432373 -173.94872559 182.03442871 -173.40112305 181.4987793 C-171.77930377 179.84554114 -171.77930377 179.84554114 -170 177 C-169.34 177 -168.68 177 -168 177 C-167.74114014 176.41444336 -167.48228027 175.82888672 -167.21557617 175.22558594 C-165.90778276 172.8311604 -164.50263899 171.28906671 -162.55078125 169.390625 C-161.86693359 168.71773437 -161.18308594 168.04484375 -160.47851562 167.3515625 C-159.76373047 166.65804688 -159.04894531 165.96453125 -158.3125 165.25 C-154.24143149 161.28080253 -150.22108986 157.32889658 -146.51171875 153.015625 C-142.06406284 147.84390262 -137.17976369 143.13182516 -132.31640625 138.35546875 C-128.2817751 134.36461298 -124.46028262 130.28347991 -120.75976562 125.98242188 C-117.03608091 121.78759393 -112.96344461 117.92583073 -108.9609375 114 C-105.01978798 110.10450086 -101.29958979 106.1044132 -97.68359375 101.90625 C-95.08825681 98.96767824 -92.30293194 96.23871041 -89.5 93.5 C-86.09057725 90.13284679 -82.71563089 86.79212162 -79.625 83.125 C-76.14750628 79.01841194 -72.32029579 75.28348253 -68.5 71.5 C-62.82499848 65.91455492 -62.82499848 65.91455492 -57.5 60 C-53.4619844 55.20485648 -48.91874941 50.8954922 -44.46875 46.48828125 C-41.36994552 43.40792204 -38.31670228 40.34483396 -35.5 37 C-31.46530124 32.20879522 -26.92619857 27.90274288 -22.47973633 23.49926758 C-18.71948221 19.76149349 -15.11467972 15.9728728 -11.6953125 11.91796875 C-8.00881251 7.7472971 -3.97022198 3.89832661 0 0 Z " fill="#020202" transform="translate(1314,1213)"/>
<path d="M0 0 C1.59301758 1.34423828 1.59301758 1.34423828 3.14453125 3.0703125 C3.73169922 3.71226563 4.31886719 4.35421875 4.92382812 5.015625 C5.54708984 5.71171875 6.17035156 6.4078125 6.8125 7.125 C8.15007552 8.58801449 9.48998447 10.04889849 10.83203125 11.5078125 C11.86191162 12.62784668 11.86191162 12.62784668 12.91259766 13.77050781 C16.18787317 17.2687319 19.58900091 20.63482925 23 24 C27.19994078 28.15590401 31.25756374 32.32651072 35.06640625 36.84765625 C38.46696941 40.63292958 42.12868378 44.16805265 45.76391602 47.72680664 C48.7723387 50.69123045 51.65101612 53.70388102 54.40625 56.90625 C58.22285613 61.32772004 62.33471922 65.40923229 66.5 69.5 C70.61273091 73.53915791 74.68092545 77.56137424 78.4375 81.9375 C82.54305154 86.70932391 87.0159209 91.08675943 91.5 95.5 C96.65101423 100.5696396 101.66079733 105.66161989 106.36914062 111.14648438 C108.94221435 114.07085199 111.71323775 116.78104218 114.5 119.5 C117.93387456 122.8503253 121.24469609 126.23669248 124.375 129.875 C128.20353722 134.30558848 132.32421609 138.39891705 136.5 142.5 C140.61273091 146.53915791 144.68092545 150.56137424 148.4375 154.9375 C152.54305154 159.70932391 157.0159209 164.08675943 161.5 168.5 C166.64077794 173.55956502 171.63900248 178.64138442 176.33789062 184.11523438 C179.07931618 187.22390143 182.039569 190.10185073 185 193 C192.31571173 200.23189677 192.31571173 200.23189677 195.4375 203.9375 C198.89041051 208.02624058 202.7009513 211.73712399 206.5 215.5 C219.884015 228.76803001 219.884015 228.76803001 222 233 C218.13859778 231.56594155 214.70214215 229.76853075 211.15234375 227.68359375 C210.59211014 227.35548203 210.03187653 227.0273703 209.45466614 226.6893158 C207.61336559 225.60914648 205.77532368 224.52357288 203.9375 223.4375 C202.63903136 222.67328214 201.34052818 221.90912295 200.04199219 221.14501953 C188.30967981 214.22885729 176.67267208 207.15845562 165.04518127 200.06806946 C159.21452732 196.51571247 153.35862081 193.00596827 147.5 189.5 C139.37241454 184.63516347 131.26660036 179.73599042 123.17654419 174.80905151 C110.86963472 167.31433046 98.50376529 159.92368739 86.09741211 152.59472656 C78.99694333 148.39682303 71.9404841 144.13991819 64.92407227 139.80249023 C60.95002916 137.35276491 56.94646246 134.95447924 52.9375 132.5625 C45.43785949 128.07680839 37.96461838 123.54929148 30.50109863 119.00378418 C18.92646648 111.95572479 7.29867851 105.00257636 -4.36254883 98.09881592 C-14.88394384 91.86847865 -25.35158539 85.55627696 -35.78515625 79.1796875 C-40.73645085 76.15506256 -45.70839726 73.16606588 -50.6875 70.1875 C-59.16444976 65.11391578 -67.61664425 60.00011078 -76.0625 54.875 C-76.99780045 54.3078981 -76.99780045 54.3078981 -77.95199585 53.7293396 C-79.73015604 52.65101189 -81.50775007 51.57175748 -83.28515625 50.4921875 C-84.31519775 49.86683105 -85.34523926 49.24147461 -86.40649414 48.59716797 C-88.29405285 47.43474596 -90.15552957 46.22964695 -92 45 C-92 44.34 -92 43.68 -92 43 C-80.60238038 37.23175907 -69.19835837 31.47640289 -57.785923 25.73752499 C-52.48718997 23.07248527 -47.19078732 20.40301527 -41.89941406 17.72338867 C-36.79534717 15.13882112 -31.6855507 12.56593481 -26.57152557 10.00113106 C-24.61893718 9.01928267 -22.66847035 8.03320367 -20.72016144 7.04289055 C-17.99630172 5.65926587 -15.26536784 4.29071371 -12.53222656 2.92553711 C-11.72374268 2.51050934 -10.91525879 2.09548157 -10.08227539 1.6678772 C-8.96335907 1.11460503 -8.96335907 1.11460503 -7.82183838 0.55015564 C-7.17658329 0.22476272 -6.5313282 -0.10063021 -5.86651993 -0.43588352 C-3.53279807 -1.14120198 -2.26728057 -0.82968321 0 0 Z " fill="#030303" transform="translate(605,1214)"/>
<path d="M0 0 C0.33 0 0.66 0 1 0 C1 114.18 1 228.36 1 346 C0.01 345.34 -0.98 344.68 -2 344 C-1.34 344 -0.68 344 0 344 C-0.33 233.78 -0.66 123.56 -1 10 C-1.99 10.495 -1.99 10.495 -3 11 C-2.01 7.37 -1.02 3.74 0 0 Z " fill="#181818" transform="translate(1428,874)"/>
<path d="M0 0 C0.66 0.99 1.32 1.98 2 3 C0.576875 4.0828125 0.576875 4.0828125 -0.875 5.1875 C-3.7466223 7.54249866 -4.65505673 9.54157446 -6 13 C-7.3326744 13.33595808 -8.66609407 13.66896545 -10 14 C-11.60244408 15.19405709 -11.60244408 15.19405709 -13.015625 16.72265625 C-13.54414062 17.26083984 -14.07265625 17.79902344 -14.6171875 18.35351562 C-15.42542969 19.19946289 -15.42542969 19.19946289 -16.25 20.0625 C-17.08144531 20.91424805 -17.08144531 20.91424805 -17.9296875 21.78320312 C-19.29334214 23.18212469 -20.64760417 24.59019114 -22 26 C-22.66 25.67 -23.32 25.34 -24 25 C-23.34402832 24.34926514 -22.68805664 23.69853027 -22.01220703 23.02807617 C-19.57626733 20.60919367 -17.14260652 18.18806419 -14.71044922 15.76538086 C-13.65796713 14.71792294 -12.60458865 13.6713649 -11.55029297 12.62573242 C-10.0337565 11.1213454 -8.5204886 9.61373614 -7.0078125 8.10546875 C-6.09660645 7.19949951 -5.18540039 6.29353027 -4.24658203 5.36010742 C-1.88691915 3.01660255 -1.88691915 3.01660255 0 0 Z " fill="#DDDDDD" transform="translate(1087,1386)"/>
<path d="M0 0 C0.66 0.99 1.32 1.98 2 3 C1.32904297 3.56267578 1.32904297 3.56267578 0.64453125 4.13671875 C0.03996094 4.64847656 -0.56460937 5.16023438 -1.1875 5.6875 C-1.77917969 6.18636719 -2.37085938 6.68523437 -2.98046875 7.19921875 C-5.42019216 9.37467812 -7.7023262 11.67497294 -10 14 C-10.96418459 14.96550246 -11.92904438 15.93033105 -12.89453125 16.89453125 C-13.61479492 17.61479492 -13.61479492 17.61479492 -14.34960938 18.34960938 C-16.56640625 20.56640625 -18.78320312 22.78320312 -21 25 C-21.66 24.67 -22.32 24.34 -23 24 C-22.37432129 23.37955811 -21.74864258 22.75911621 -21.10400391 22.11987305 C-18.77987881 19.81280853 -16.45803595 17.50349527 -14.13769531 15.19262695 C-13.13371622 14.19367099 -12.12884068 13.19561513 -11.12304688 12.19848633 C-9.67600662 10.76360007 -8.23224009 9.32548866 -6.7890625 7.88671875 C-5.91975098 7.02264404 -5.05043945 6.15856934 -4.15478516 5.26831055 C-1.87536621 2.99818208 -1.87536621 2.99818208 0 0 Z " fill="#232323" transform="translate(1255,1274)"/>
<path d="M0 0 C0.66 0.66 1.32 1.32 2 2 C-4.6 8.6 -11.2 15.2 -18 22 C-18.66 21.67 -19.32 21.34 -20 21 C-19.19780029 20.20565552 -19.19780029 20.20565552 -18.37939453 19.39526367 C-15.95864666 16.99529814 -13.54178829 14.59145254 -11.125 12.1875 C-10.28324219 11.35412109 -9.44148437 10.52074219 -8.57421875 9.66210938 C-7.76855469 8.85966797 -6.96289062 8.05722656 -6.1328125 7.23046875 C-5.01737061 6.12288208 -5.01737061 6.12288208 -3.87939453 4.99291992 C-1.84096614 2.94268695 -1.84096614 2.94268695 0 0 Z " fill="#DADADA" transform="translate(1019,1457)"/>
<path d="M0 0 C0.66 0.66 1.32 1.32 2 2 C-3.94 7.94 -9.88 13.88 -16 20 C-16.66 19.67 -17.32 19.34 -18 19 C-17.52578613 18.53102295 -17.05157227 18.0620459 -16.56298828 17.57885742 C-14.41436915 15.45103477 -12.26965202 13.31932077 -10.125 11.1875 C-9.37863281 10.44951172 -8.63226562 9.71152344 -7.86328125 8.95117188 C-7.14785156 8.23896484 -6.43242188 7.52675781 -5.6953125 6.79296875 C-5.03547363 6.1383667 -4.37563477 5.48376465 -3.69580078 4.80932617 C-1.81831708 2.9054354 -1.81831708 2.9054354 0 0 Z " fill="#222222" transform="translate(1144,1390)"/>
<path d="M0 0 C3.99996286 1.33332095 4.83782337 3.4957827 7 7 C3.54074837 5.7508258 0.85306797 4.32472205 -2 2 C-1.34 2 -0.68 2 0 2 C0 1.34 0 0.68 0 0 Z " fill="#282828" transform="translate(820,1440)"/>
<path d="M0 0 C0.66 0.33 1.32 0.66 2 1 C2 1.99 2 2.98 2 4 C-1.3 4.66 -4.6 5.32 -8 6 C-5.36435544 3.36435544 -3.27929831 1.68169144 0 0 Z " fill="#373737" transform="translate(607,604)"/>
<path d="M0 0 C0.33 0 0.66 0 1 0 C1.25 3.25 1.25 3.25 1 7 C-0.32 8.32 -1.64 9.64 -3 11 C-2.01 7.37 -1.02 3.74 0 0 Z " fill="#393939" transform="translate(1428,874)"/>
</svg>
